<svg width="82" height="23" viewBox="0 0 82 23" fill="none" xmlns="http://www.w3.org/2000/svg">
<path fill-rule="evenodd" clip-rule="evenodd" d="M4.22219 0.0749376C2.53862 0.772348 0.695403 2.73516 0.114862 5.20126C-0.625328 8.32163 2.44428 9.63736 2.69827 9.20597C2.98854 8.70269 2.14676 8.53013 1.97259 6.90524C1.75489 4.8202 2.73455 2.47633 3.9682 1.45538C4.20042 1.26125 4.18591 1.52728 4.18591 2.01618L4.14236 12.4126C4.14236 14.6415 4.04803 15.3389 3.88112 16.0363C3.71422 16.7409 3.44572 17.2154 3.64165 17.4023C3.87387 17.6037 4.86079 17.1147 5.42681 16.3239C6.07355 15.3465 6.40973 14.1995 6.39196 13.0309C6.44276 11.5498 6.4355 9.19878 6.44276 7.86148C6.44276 6.63922 6.46453 3.03713 6.42099 0.873004C6.40647 0.34096 4.91884 -0.212654 4.22219 0.0821272V0.0749376ZM63.822 10.4858C63.7988 11.4185 63.5814 12.3364 63.1834 13.1819C62.5666 14.4186 61.2749 14.7996 60.7233 13.0238C60.4331 12.0603 60.4113 10.4426 60.629 9.09094C60.8467 7.72488 61.4563 6.68236 62.465 6.77583C63.4664 6.86929 63.9308 8.14189 63.822 10.4858ZM47.0226 17.6612C47.0081 19.5808 46.7033 21.2633 46.0502 21.7594C45.114 22.4496 43.8731 21.9247 44.1271 20.5227C44.3521 19.2861 45.4333 18.0207 47.0298 16.4677L47.0226 17.6612ZM46.7686 10.4714C46.7261 11.4062 46.5096 12.3251 46.13 13.1819C45.5132 14.4186 44.2142 14.7996 43.67 13.0238C43.3071 11.8087 43.3942 10.2413 43.5756 9.24911C43.8151 7.96933 44.3884 6.77583 45.4116 6.77583C46.413 6.77583 46.9065 7.85429 46.7686 10.4714ZM37.0373 10.457C37.0189 11.4011 36.8039 12.3312 36.4059 13.1891C35.7673 14.4114 34.4974 14.7996 33.9386 13.0238C33.5395 11.7512 33.6774 10.004 33.8443 9.06937C34.091 7.66736 34.7151 6.68236 35.6803 6.76864C36.6817 6.86929 37.1606 8.1347 37.0373 10.457ZM81.6301 11.7584C81.3906 11.7584 81.2745 12.01 81.1874 12.427C80.8681 13.8793 80.5343 14.2101 80.0989 14.2101C79.62 14.2101 79.1845 13.4911 79.0684 12.0531C78.9814 10.9171 78.9959 8.83211 79.112 6.75426C79.1338 6.33006 79.0104 5.91305 77.8566 5.49604C77.3631 5.3163 76.6374 5.05027 76.2818 5.91305C75.5632 7.55468 75.0561 9.27941 74.7724 11.0466C74.7724 11.0897 74.7144 11.0969 74.6999 11.0034C74.6491 10.3779 74.5112 9.23473 74.4967 6.84053C74.4967 6.3732 74.3951 5.97776 73.8726 5.65422C73.5315 5.43852 72.5083 5.07184 72.131 5.51042C71.8189 5.86991 71.4488 6.85491 71.0642 8.01247L70.5272 9.59422L70.5345 6.08561C70.5345 5.72612 70.2878 5.60389 70.2079 5.58232C69.7822 5.45221 69.3447 5.36312 68.9017 5.3163C68.5534 5.3163 68.4663 5.51042 68.4663 5.79801C68.4663 5.83396 68.4082 9.14127 68.4082 11.4564V11.7871C68.2123 12.8512 67.581 14.2963 66.8916 14.2963C66.2022 14.2963 65.8756 13.6924 65.8756 10.9315C65.8756 9.32101 65.9264 8.6236 65.9482 7.45886C65.9627 6.78301 65.9918 6.27254 65.9918 6.1575C65.9845 5.79801 65.3604 5.61827 65.0701 5.54637C64.7799 5.48166 64.5186 5.4529 64.3227 5.46728C64.0324 5.48166 63.8365 5.66141 63.8365 5.91305V6.30849C63.5233 5.81771 63.0571 5.44158 62.5085 5.23721C61.4635 4.92805 60.375 5.20126 59.555 6.33725C58.8472 7.3404 58.4306 8.51663 58.3504 9.73802C58.2343 10.8165 58.2778 11.9021 58.4737 12.8296C58.2343 13.865 57.7771 14.2963 57.2836 14.2963C56.5652 14.2963 56.05 13.1316 56.108 11.1328C56.1516 9.80992 56.4128 8.88243 56.7031 7.54513C56.8265 6.96995 56.7321 6.68236 56.4781 6.39477C56.2459 6.12874 55.7525 5.99214 55.034 6.1575C54.5261 6.27254 53.8004 6.40196 53.1473 6.49542C53.1473 6.49542 53.1836 6.34444 53.2198 6.06403C53.3868 4.60451 51.783 4.71954 51.2678 5.18688C50.963 5.46728 50.7598 5.79082 50.6727 6.38758C50.5494 7.32225 51.3258 7.76083 51.3258 7.76083C50.8272 9.62703 49.9912 11.3882 48.8585 12.959V12.4558C48.8513 10.04 48.8803 8.14189 48.8948 7.45886C48.9093 6.78301 48.9384 6.28692 48.9384 6.16469C48.9384 5.90586 48.7787 5.8052 48.4594 5.68298C48.1691 5.56794 47.8353 5.49604 47.487 5.46728C47.0516 5.43133 46.7831 5.66141 46.7904 5.93462V6.30849C46.4757 5.81614 46.0066 5.43976 45.4551 5.23721C44.4101 4.92805 43.3216 5.20126 42.5016 6.33725C41.8192 7.35044 41.4049 8.51744 41.297 9.73083C41.1881 10.8596 41.2027 11.8159 41.3623 12.6355C41.1954 13.448 40.7164 14.2892 40.1795 14.2892C39.4901 14.2892 39.0909 13.6924 39.0909 10.9315C39.0909 9.32101 39.1417 8.6236 39.1635 7.45886C39.178 6.78301 39.207 6.27254 39.207 6.1575C39.207 5.79801 38.5757 5.61827 38.2854 5.54637C37.9807 5.47447 37.7121 5.4529 37.5162 5.47447C37.2477 5.48885 37.059 5.72612 37.059 5.90586V6.30849C36.7444 5.81614 36.2753 5.43976 35.7238 5.23721C34.6788 4.92805 33.5976 5.20845 32.7703 6.33725C32.226 7.0778 31.7906 7.89743 31.5657 9.71645C31.5047 10.203 31.4756 10.6929 31.4786 11.1832C31.2609 12.4845 30.3102 13.9872 29.5338 13.9872C29.0766 13.9872 28.6412 13.1172 28.6412 11.2551C28.6412 8.77459 28.8008 5.2444 28.8226 4.90648L29.9982 4.88491C30.4917 4.88491 30.9343 4.8921 31.5874 4.85615C31.914 4.84177 32.226 3.67702 31.8922 3.53323C31.7398 3.46852 30.6586 3.411 30.2232 3.40381C29.8603 3.39662 28.8589 3.32472 28.8589 3.32472C28.8589 3.32472 28.9532 0.980852 28.975 0.736399C28.9895 0.520705 28.721 0.420048 28.5614 0.355339C28.2032 0.212503 27.8311 0.106497 27.4511 0.0389885C26.8996 -0.0688585 26.6528 0.0389883 26.602 0.499135C26.5295 1.19655 26.4932 3.24564 26.4932 3.24564C26.0868 3.24564 24.7008 3.16655 24.3016 3.16655C23.9243 3.16655 23.5179 4.76268 24.0404 4.78425L26.3626 4.84896L26.3408 9.5439V9.88182C25.9562 11.8446 24.6209 12.9015 24.6209 12.9015C24.9112 11.6074 24.3162 10.6367 23.2639 9.80992C22.8721 9.50795 22.1029 8.93276 21.2393 8.30006C21.2393 8.30006 21.74 7.81116 22.1827 6.83334C22.4947 6.14312 22.5092 5.35225 21.74 5.17969C20.4701 4.88491 19.4179 5.8052 19.1058 6.79739C18.9841 7.11858 18.9535 7.46669 19.0175 7.80388C19.0814 8.14106 19.2375 8.45442 19.4686 8.70988L19.5775 8.84649C19.2872 9.39291 18.8954 10.1263 18.5616 10.7015C17.6399 12.2832 16.936 13.5414 16.4063 13.5414C15.9854 13.5414 15.9927 12.2688 15.9927 11.0753C15.9927 10.0472 16.0652 8.50138 16.1305 6.90524C16.1523 6.3732 15.8838 6.07123 15.4339 5.79801C15.0761 5.55281 14.6709 5.38388 14.2438 5.30192C13.7358 5.30192 12.2845 5.37382 10.9057 9.30663C10.7388 9.80273 10.3977 10.7015 10.3977 10.7015L10.4267 5.97776C10.4267 5.86272 10.3687 5.76206 10.2308 5.69017C9.79771 5.46207 9.3199 5.32962 8.83023 5.30192C8.56899 5.30192 8.43837 5.42414 8.43837 5.66141L8.38757 13.0669C8.38757 13.6277 8.40209 14.282 8.46014 14.5696C8.51819 14.8572 8.60528 15.0872 8.72138 15.2238C8.83023 15.3676 8.96086 15.4683 9.1713 15.5114C9.37449 15.5546 10.463 15.6912 10.5211 15.2814C10.5936 14.7853 10.5936 14.2532 11.1669 12.2616C12.0522 9.16284 13.2133 7.64579 13.7648 7.11375C13.8592 7.01309 13.968 7.01309 13.9608 7.16407L13.8011 10.989C13.656 14.85 14.3671 15.5618 15.3758 15.5618C16.1523 15.5618 17.2481 14.7996 18.4237 12.8728L20.383 9.63736L21.5296 10.6871C22.4584 11.5498 22.7632 12.3839 22.56 13.1676C22.4076 13.7643 21.8198 14.3898 20.7894 13.7859C20.4846 13.6061 20.354 13.4695 20.0564 13.2754C19.8895 13.1676 19.6428 13.1316 19.4904 13.2466C19.1058 13.5342 18.8808 13.9081 18.7575 14.3611C18.6341 14.7996 19.084 15.0369 19.5485 15.2382C19.9476 15.418 20.8111 15.5761 21.3627 15.5977C23.4961 15.6696 25.2087 14.5768 26.3989 11.7584C26.6166 14.1885 27.5237 15.5689 29.0984 15.5689C30.1506 15.5689 31.2101 14.2173 31.6745 12.8943C31.8051 13.4336 32.0011 13.9009 32.2551 14.3035C33.4742 16.2088 35.8326 15.7918 37.0155 14.1741C37.3783 13.678 37.4364 13.4983 37.4364 13.4983C37.4718 14.0426 37.7094 14.5547 38.1034 14.9357C38.4973 15.3168 39.0198 15.5398 39.5699 15.5618C40.3681 15.5618 41.1881 15.1879 41.7687 13.9009C41.834 14.0447 41.9138 14.1741 41.9864 14.3035C43.2055 16.2088 45.564 15.7918 46.7468 14.1741L46.892 13.9728L46.9282 14.9794L45.8397 15.9644C44.011 17.618 42.6177 18.8762 42.5161 20.343C42.3855 22.2123 43.9167 22.9025 45.0778 22.996C45.6585 23.0246 46.2364 22.8991 46.7518 22.6324C47.2672 22.3657 47.7014 21.9675 48.0095 21.479C48.5755 20.6521 48.9529 18.8691 48.9238 17.1076L48.8803 14.548C50.6186 12.5565 51.9539 10.2522 52.8135 7.76083C52.8135 7.76083 53.4883 7.76802 54.2068 7.72488C54.439 7.7105 54.5043 7.75364 54.4608 7.919C54.41 8.12032 53.5537 11.3989 54.3374 13.5846C54.8744 15.08 56.079 15.5618 56.8047 15.5618C57.6392 15.5618 58.4447 14.9362 58.8729 14.0016L59.0398 14.3035C60.2589 16.2088 62.6101 15.7918 63.8002 14.1741C64.0687 13.8146 64.2211 13.4983 64.2211 13.4983C64.4823 15.08 65.7233 15.5689 66.4344 15.5689C67.1746 15.5689 67.8858 15.267 68.4518 13.9297C68.4736 14.5192 68.5098 15.0009 68.5679 15.1519C68.6042 15.2454 68.8146 15.3676 68.9743 15.418C69.6492 15.6624 70.3385 15.5474 70.5998 15.497C70.774 15.4611 70.9118 15.3173 70.9336 14.9578C70.9844 14.0016 70.9554 12.3982 71.2456 11.2119C71.7318 9.20598 72.189 8.42948 72.4067 8.04842C72.5301 7.83272 72.668 7.79678 72.6752 8.02685C72.6825 8.487 72.7043 9.83868 72.8929 11.6577C73.0381 12.995 73.2267 13.7859 73.3646 14.0303C73.7783 14.7493 74.2862 14.7853 74.6926 14.7853C74.9538 14.7853 75.5054 14.7134 75.4546 14.2604C75.4328 14.0375 75.4691 12.6643 75.9625 10.6943C76.2746 9.40729 76.7971 8.24973 76.9857 7.81835C77.0583 7.66736 77.0946 7.78959 77.0946 7.81835C77.0511 8.6955 76.964 11.593 77.3268 13.1819C77.8203 15.3245 79.2499 15.5689 79.7506 15.5689C80.8173 15.5689 81.6881 14.7637 81.9784 12.6571C82.051 12.1538 81.9421 11.7584 81.6301 11.7584Z" fill="black"/>
</svg>
